<?xml version="1.0" standalone="no"?>
<!DOCTYPE svg PUBLIC "-//W3C//DTD SVG 20010904//EN"
 "http://www.w3.org/TR/2001/REC-SVG-20010904/DTD/svg10.dtd">
<svg version="1.0" xmlns="http://www.w3.org/2000/svg"
 width="618.000000pt" height="618.000000pt" viewBox="0 0 618.000000 618.000000"
 preserveAspectRatio="xMidYMid meet">
<metadata>
Created by potrace 1.14, written by Peter Selinger 2001-2017
</metadata>
<g transform="translate(0.000000,618.000000) scale(0.100000,-0.100000)"
fill="#000000" stroke="none">
<path d="M2968 5275 c-2 -2 -41 -5 -88 -8 -69 -5 -194 -26 -314 -52 -92 -20
-275 -91 -402 -155 -85 -43 -154 -76 -154 -75 0 5 -122 -24 -175 -42 -143 -49
-358 -191 -480 -319 -139 -145 -217 -242 -319 -398 -65 -99 -146 -236 -181
-306 -100 -197 -205 -439 -250 -574 -103 -309 36 -748 395 -1246 131 -181 212
-273 267 -303 133 -71 286 -14 362 136 l29 58 17 -23 c197 -279 342 -417 540
-513 99 -48 256 -105 326 -119 20 -4 28 -14 33 -38 16 -82 71 -191 129 -255
78 -86 237 -136 432 -135 262 0 370 82 454 342 l21 65 69 16 c125 31 351 131
419 186 159 130 287 276 391 447 l24 38 24 -51 c64 -134 218 -190 350 -126 40
20 68 45 111 98 31 40 59 74 62 77 3 3 27 34 52 70 26 36 51 70 56 75 37 45
171 268 233 390 158 311 211 557 168 777 -34 173 -205 581 -356 848 -250 442
-617 735 -945 753 -44 3 -77 11 -95 23 -84 56 -316 171 -432 214 -206 75 -424
118 -639 124 -72 2 -133 2 -134 1z"/>
</g>
</svg>
