<?xml version="1.0" encoding="UTF-8" standalone="no"?>
<!-- Created with Inkscape (http://www.inkscape.org/) -->

<svg
   width="2400mm"
   height="1200mm"
   viewBox="0 0 2400 1200"
   version="1.1"
   id="svg5"
   xml:space="preserve"
   xmlns="http://www.w3.org/2000/svg"
   xmlns:svg="http://www.w3.org/2000/svg"><defs
     id="defs2"><rect
       x="3562.573"
       y="1517.3042"
       width="4756.4395"
       height="1484.0092"
       id="rect558" /></defs><g
     id="layer1"
     transform="translate(1200,500)"><rect
       style="fill:none;stroke-width:0.264583"
       id="rect61"
       width="2400"
       height="1200"
       x="-1200"
       y="-500" /></g><g
     id="layer4"><g
       id="g237"
       transform="matrix(7.8768256,0,0,7.8768256,248.13019,314.17847)"><g
         id="color-3"><path
           fill="#a57939"
           d="m 14.375,47.125 c 0,0 0.2295,0.0762 0.4395,0.248 1.5,1.2295 1.333,2.9405 1.333,2.9405 l 1.3281,1.4678 4.5244,0.5937 4.75,0.1875 6.375,-0.4375 3.5625,1.125 2.75,-1.375 c 0,0 0.0625,-5.8437 0.7188,-5.8437 0.75,0 1.7812,1.1044 1.7812,3.9687 0,3.125 -1.7939,6.2754 -7.9375,6 -0.457,-0.0205 0.25,1.8125 0.25,1.8125 l -0.9375,2.75 -2,2.625 L 31,66.25 30.6875,66.625 c 0,0 -0.2637,0.4063 -0.8437,0.4063 -2.7813,0 -3.2188,-1.4688 -1.5938,-2.0938 0.1309,-0.0508 0.375,-1.75 0.375,-1.75 l -2,-2.0205 -3.917,0.708 -4.125,0.208 0.417,1.334 -1.708,3.166 c 0,0 1.124,0.459 -0.459,0.459 -0.374,0 -2.04,-0.334 -2.207,-2.459 l 0.624,-3.209 -1.208,-2.041 -0.833,-2 -1.917,-0.5 -4.124,0.624 -1.375,-1 1.75,-1.75 L 9.2188,52.5 12.46,50.332 Z"
           id="path177" /><path
           fill="#6a462f"
           d="m 13.583,59.71 1.667,1.664 c -0.125,1 -2.0713,0.8213 -2.1455,1.6465 -0.1045,1.166 0.5225,0.835 0.4844,1.6904 -0.0821,1.8418 -2.4346,1.7686 -3.0293,1.1866 -0.3848,-0.376 -0.3096,-0.792 0.1484,-2.1465 0.8428,-2.4932 2.3545,-4.25 2.3545,-4.25 z"
           id="path179" /></g><g
         id="hair-4" /><g
         id="skin-5"><circle
           cx="54.9688"
           cy="8.0937996"
           r="3"
           fill="#fcea2b"
           id="circle183" /><path
           fill="#fcea2b"
           d="M 61.2666,51.6416 59.1348,38.1406 59.0534,38.136 60,37 59.3888,29.6655 60,30 58.5693,19.0083 C 58.2852,16.8267 56.252,15 54.0518,15 H 54 c -2.2002,0 -4.2002,1.8306 -4.4463,4.0171 L 49,23.979 49.0469,24.0047 49,24 l -0.6505,6.8286 -5.4735,2.5358 -0.709,1.0127 c 0,0 0.9072,2.2705 3.3769,1.581 l 2.4663,-1.5679 -0.061,0.6402 L 46.0137,66 l 2.1602,1 5.9759,-21.0105 3.3737,8.656 L 65.167,65 l 3,-2 z"
           id="path185" /></g><g
         id="skin-shadow-4" /><g
         id="line-5"><circle
           cx="54.9688"
           cy="8.0937996"
           r="3"
           fill="none"
           stroke="#000000"
           stroke-miterlimit="10"
           stroke-width="2"
           id="circle189" /><path
           fill="none"
           stroke="#000000"
           stroke-linecap="round"
           stroke-linejoin="round"
           stroke-miterlimit="10"
           stroke-width="2"
           d="M 49,35 45.9521,65.0098 C 45.8408,66.1045 46.5205,67 47.4619,67 c 0.9414,0 1.9492,-0.8682 2.2383,-1.9297 l 5.4863,-20.1152 c 0.2891,-1.0615 1.043,-2.667 1.6739,-3.5674 l 2.1992,-3.1397 c 0.6308,-0.9003 1.1035,-2.5371 1.0508,-3.6357 L 59.6182,24.4932"
           id="path191" /><path
           fill="none"
           stroke="#000000"
           stroke-linecap="round"
           stroke-linejoin="round"
           stroke-miterlimit="10"
           stroke-width="2"
           d="m 59.1348,38.1406 1.8203,11.5254 c 0.1709,1.0869 0.7793,2.7451 1.3496,3.6846 l 4.8242,7.9404 c 0.5703,0.9395 0.3633,2.1592 -0.4619,2.709 -0.8252,0.5498 -2.0342,0.2764 -2.6875,-0.6094 l -5.2686,-7.1357 c -0.6533,-0.8858 -1.5146,-2.4483 -1.914,-3.4727 l -2.2031,-5.6533"
           id="path193" /><path
           fill="none"
           stroke="#000000"
           stroke-linecap="round"
           stroke-linejoin="round"
           stroke-miterlimit="10"
           stroke-width="2"
           d="M 59.9248,29.5811 59.292,19.0347 C 59.1602,16.8389 57.252,15 55.0518,15 H 55 c -2.2002,0 -4.2002,1.8306 -4.4463,4.0171 L 50.084,23.23"
           id="path195" /><path
           fill="none"
           stroke="#000000"
           stroke-linecap="round"
           stroke-linejoin="round"
           stroke-miterlimit="10"
           stroke-width="2"
           d="m 55.167,20 -3.0684,6.4443 c -0.4726,0.9932 -1.6269,2.2754 -2.5654,2.8487 l -7.5957,4.6445"
           id="path197" /><path
           fill="none"
           stroke="#000000"
           stroke-linecap="round"
           stroke-linejoin="round"
           stroke-miterlimit="10"
           stroke-width="2"
           d="m 13,57 5,-5 c 0,0 17,-6 23.9375,-18.0625"
           id="path199" /><path
           fill="none"
           stroke="#000000"
           stroke-linecap="round"
           stroke-linejoin="round"
           stroke-miterlimit="10"
           stroke-width="2"
           d="m 40,47 c 2,5 -4,8 -7,6 -0.7715,-0.5137 -3.8535,-1.3145 -7,-1 L 17.6719,52.3281 16,51.3125"
           id="path201" /><path
           fill="none"
           stroke="#000000"
           stroke-linecap="round"
           stroke-linejoin="round"
           stroke-miterlimit="10"
           stroke-width="2"
           d="m 27,58 c 0,2 1.25,4.501 1.25,4.501 0,0 0.3828,1.2344 -0.25,2.499 -1,2 2,3 3,1 1,-2 0.832,-3.6641 1,-4 0.4033,-0.8066 1.999,-1.917 2,-4 0,-1 0,-1 0,-1"
           id="path203" /><path
           fill="none"
           stroke="#000000"
           stroke-linecap="round"
           stroke-linejoin="round"
           stroke-miterlimit="10"
           stroke-width="2"
           d="m 27,60 c -2.041,2.001 -4.625,2 -8,2"
           id="path205" /><path
           fill="none"
           stroke="#000000"
           stroke-linecap="round"
           stroke-linejoin="round"
           stroke-miterlimit="10"
           stroke-width="2"
           d="m 14,59 c -1.0156,0.9287 -2,1 -3,2 -1,1 -1,3 0,4"
           id="path207" /><path
           fill="none"
           stroke="#000000"
           stroke-linecap="round"
           stroke-linejoin="round"
           stroke-miterlimit="10"
           stroke-width="2"
           d="m 14,48 -1,2 c 0,0 -2.2441,0.2998 -3,1 -0.5801,0.5371 -1,3 -1,3 0,0 -2.8779,1.5928 -3,2 -0.0937,0.3125 1.293,2 2,2 1,0 4,-1 4,-1 2,0 2,3 3,4 0.4102,0.4102 0,3 -0.334,3.959 C 13.9863,66.9131 17,68 17.834,65.834 18.1387,65.04 19,63 19,61"
           id="path209" /></g></g></g><g
     id="layer3"><text
       xml:space="preserve"
       transform="matrix(0.26458333,0,0,0.26458333,-25.169491,46.56356)"
       id="text556"
       style="font-style:normal;font-variant:normal;font-weight:normal;font-stretch:normal;font-size:1000px;font-family:sans-serif;-inkscape-font-specification:'sans-serif, Normal';font-variant-ligatures:normal;font-variant-caps:normal;font-variant-numeric:normal;font-variant-east-asian:normal;white-space:pre;shape-inside:url(#rect558);display:inline;fill:#000000"><tspan
         x="3562.5723"
         y="2429.635"
         id="tspan578">barberod</tspan></text></g></svg>
