<?xml version="1.0" encoding="UTF-8" standalone="no"?>
<!-- Created with Inkscape (http://www.inkscape.org/) -->

<svg
   width="2400mm"
   height="1200mm"
   viewBox="0 0 2400 1200"
   version="1.1"
   id="svg5"
   xml:space="preserve"
   xmlns="http://www.w3.org/2000/svg"
   xmlns:svg="http://www.w3.org/2000/svg"><defs
     id="defs2"><rect
       x="3562.573"
       y="1517.3042"
       width="4756.4395"
       height="1484.0092"
       id="rect558" /></defs><g
     id="layer1"
     transform="translate(1200,500)"><rect
       style="fill:none;stroke-width:0.264583"
       id="rect61"
       width="2400"
       height="1200"
       x="-1200"
       y="-500" /></g><g
     id="layer2"><g
       id="g383"
       transform="matrix(8.838049,0,0,8.838049,217.34125,281.86801)"><g
         id="color"><path
           fill="#f4aa41"
           stroke="none"
           d="m 23.5,14.5855 -4.5,1.75 -7.25,8.5 -4.5,10.75 2,5.25 c 1.2554,3.7911 3.5231,7.1832 7.25,10 L 19,47.5022 c 0,0 3.8218,7.7098 10.7384,8.9598 0,0 10.2616,1.936 15.5949,-0.8765 3.4203,-1.8037 4.4167,-4.4167 4.4167,-4.4167 l 3.4167,-3.4167 1.5833,2.3333 2.0833,-0.0833 5.4167,-7.25 1.75,-5.4166 -0.1667,-4.5 -2.3333,-5.5 -4.8333,-7.4167 c 0,0 -2.6667,-4.9167 -8.1667,-3.9167 0,0 -6.5,-4.8333 -11.8333,-4.0833 -5.3333,0.75 -4.5834,-1.25 -13.1667,2.6667 z"
           id="path329" /><polygon
           fill="#ea5a47"
           stroke="none"
           points="35,60.4188 39.5833,59.8355 41.1667,58.0855 42.1667,53.8355 41.9167,49.8355 39.9167,50.0855 36,47.2521 32.9167,49.6688 30.4167,49.6688 30.3333,53.5021 31.0833,57.0021 32.1667,58.9188 "
           id="polygon331" /><polygon
           fill="#3f3f3f"
           stroke="none"
           points="38.6667,42.5855 41.5833,40.3355 39.8333,37.0855 32.5,36.9188 30.9167,40.6688 33.0833,41.9188 34.3333,42.4188 "
           id="polygon333" /></g><g
         id="hair" /><g
         id="skin" /><g
         id="skin-shadow" /><g
         id="line"><path
           fill="#000000"
           stroke="none"
           d="m 29.5059,30.1088 c 0,0 -1.8051,1.2424 -2.7484,0.6679 -0.9434,-0.5745 -1.2424,-1.8051 -0.6679,-2.7484 0.5745,-0.9433 1.805,-1.2424 2.7484,-0.6679 0.9434,0.5745 0.6679,2.7484 0.6679,2.7484 z"
           id="path339" /><path
           fill="none"
           stroke="#000000"
           stroke-linecap="round"
           stroke-linejoin="round"
           stroke-miterlimit="10"
           stroke-width="2"
           d="m 33.1089,37.006 h 6.1457 c 0.4011,0 0.7634,0.2397 0.9203,0.6089 l 1.1579,2.7245 -2.1792,1.1456 c -0.6156,0.3236 -1.3654,-0.0645 -1.4567,-0.754"
           id="path341" /><path
           fill="none"
           stroke="#000000"
           stroke-linecap="round"
           stroke-linejoin="round"
           stroke-miterlimit="10"
           stroke-width="2"
           d="m 34.7606,40.763 c -0.1132,0.6268 -0.7757,0.9895 -1.3647,0.7471 l -2.3132,-0.952 1.0899,-2.9035 c 0.1465,-0.3901 0.5195,-0.6486 0.9362,-0.6486"
           id="path343" /><path
           fill="none"
           stroke="#000000"
           stroke-linecap="round"
           stroke-linejoin="round"
           stroke-miterlimit="10"
           stroke-width="2"
           d="m 30.4364,50.0268 c 0,0 -0.7187,8.7934 3.0072,9.9375 2.6459,0.8125 5.1497,0.5324 6.0625,-0.25 0.875,-0.75 2.6323,-4.4741 1.8267,-9.6875"
           id="path345" /><path
           fill="#000000"
           stroke="none"
           d="m 44.2636,30.1088 c 0,0 1.805,1.2424 2.7484,0.6679 0.9434,-0.5745 1.2424,-1.8051 0.6679,-2.7484 -0.5745,-0.9434 -1.805,-1.2424 -2.7484,-0.6679 -0.9434,0.5745 -0.6679,2.7484 -0.6679,2.7484 z"
           id="path347" /><path
           fill="none"
           stroke="#000000"
           stroke-linecap="round"
           stroke-linejoin="round"
           stroke-miterlimit="10"
           stroke-width="2"
           d="m 25.6245,42.8393 c -0.475,3.6024 2.2343,5.7505 4.2847,6.8414 1.1968,0.6367 2.6508,0.5182 3.7176,-0.3181 l 2.581,-2.0233 2.581,2.0233 c 1.0669,0.8363 2.5209,0.9548 3.7176,0.3181 2.0504,-1.0909 4.7597,-3.239 4.2847,-6.8414"
           id="path349" /><path
           fill="none"
           stroke="#000000"
           stroke-linecap="round"
           stroke-linejoin="round"
           stroke-miterlimit="10"
           stroke-width="2"
           d="m 19.9509,28.3572 c -2.3166,5.1597 -0.5084,13.0249 0.119,15.3759 0.122,0.4571 0.0755,0.9355 -0.1271,1.3631 l -1.9874,4.1937 c -0.623,1.3146 -2.3934,1.5533 -3.331,0.4409 C 11.4323,45.9437 6.066,38.3409 8.0758,33.0448 15.1383,14.4344 23.9435,14.9019 23.9435,14.9019 c 2.8453,-1.9336 13.1042,-6.9375 24.8125,0.875 0,0 8.6323,-1.7175 14.9375,16.9375 1.8036,5.3362 -3.4297,12.8668 -6.5506,16.6442 -0.9312,1.127 -2.7162,0.8939 -3.3423,-0.4272 l -1.9741,-4.1656 c -0.2026,-0.4275 -0.2491,-0.906 -0.1271,-1.3631 0.6275,-2.3509 2.4356,-10.2161 0.119,-15.3759"
           id="path351" /><path
           fill="none"
           stroke="#000000"
           stroke-linecap="round"
           stroke-linejoin="round"
           stroke-miterlimit="10"
           stroke-width="2"
           d="m 52.6309,46.4628 c 0,0 -3.0781,6.7216 -7.8049,8.2712"
           id="path353" /><path
           fill="none"
           stroke="#000000"
           stroke-linecap="round"
           stroke-linejoin="round"
           stroke-miterlimit="10"
           stroke-width="2"
           d="m 19.437,46.969 c 0,0 3.0781,6.0823 7.8049,7.632"
           id="path355" /><line
           x1="36.207802"
           x2="36.207802"
           y1="47.339298"
           y2="44.309299"
           fill="none"
           stroke="#000000"
           stroke-linecap="round"
           stroke-linejoin="round"
           stroke-miterlimit="10"
           stroke-width="2"
           id="line357" /></g></g></g><g
     id="layer3"><text
       xml:space="preserve"
       transform="matrix(0.26458333,0,0,0.26458333,-25.169491,46.56356)"
       id="text556"
       style="font-style:normal;font-variant:normal;font-weight:normal;font-stretch:normal;font-size:1000px;font-family:sans-serif;-inkscape-font-specification:'sans-serif, Normal';font-variant-ligatures:normal;font-variant-caps:normal;font-variant-numeric:normal;font-variant-east-asian:normal;white-space:pre;shape-inside:url(#rect558);display:inline;fill:#000000"><tspan
         x="3562.5723"
         y="2429.635"
         id="tspan810">barberod</tspan></text></g></svg>
